<svg xmlns="http://www.w3.org/2000/svg" xmlns:xlink="http://www.w3.org/1999/xlink" preserveAspectRatio="xMidYMid" width="20" height="20" viewBox="0 0 20 20">
  <defs>
    <style>

      .cls-2 {
        fill: #000011;
      }
    </style>
  </defs>
  <path d="M14.750,18.530 C14.750,18.530 8.187,12.280 8.187,12.280 C8.187,12.280 14.437,5.640 14.437,5.640 C14.437,5.640 6.000,11.421 6.000,11.421 C6.000,11.421 -0.016,10.015 -0.016,10.015 C-0.016,10.015 19.906,0.015 19.906,0.015 C19.906,0.015 14.750,18.530 14.750,18.530 ZM7.328,19.468 C7.328,19.468 7.328,13.609 7.328,13.609 C7.328,13.609 10.062,16.265 10.062,16.265 C10.062,16.265 7.328,19.468 7.328,19.468 Z" id="path-1" class="cls-2" fill-rule="evenodd"/>
</svg>
