<svg xmlns="http://www.w3.org/2000/svg" xmlns:xlink="http://www.w3.org/1999/xlink" preserveAspectRatio="xMidYMid" width="16" height="20" viewBox="0 0 16 20">
  <defs>
    <style>

      .cls-2 {
        fill: #000000;
      }
    </style>
  </defs>
  <path d="M15.999,1.940 C15.999,1.940 12.256,7.370 12.256,7.370 C12.256,7.370 10.931,6.484 10.632,6.283 C10.333,6.084 10.091,5.983 9.645,6.177 C9.199,6.370 8.106,6.869 6.597,9.058 C5.088,11.247 5.155,12.553 5.217,12.871 C5.279,13.189 5.499,13.368 5.798,13.568 C6.097,13.768 7.294,14.568 7.294,14.568 C7.294,14.568 3.550,19.999 3.550,19.999 C3.550,19.999 1.884,18.884 1.371,18.540 C0.858,18.197 -0.369,16.853 0.088,14.606 C0.544,12.359 2.168,9.324 3.779,6.988 C5.389,4.651 7.877,1.948 9.217,1.092 C10.556,0.235 12.381,-0.419 13.492,0.324 C14.603,1.067 15.999,1.940 15.999,1.940 Z" id="path-1" class="cls-2" fill-rule="evenodd"/>
</svg>
